<?xml version="1.0" encoding="UTF-8" standalone="no"?>
<!-- Created with Inkscape (http://www.inkscape.org/) -->

<svg
   width="1204.4453"
   height="965.79095"
   viewBox="0 0 318.67615 255.5322"
   version="1.1"
   id="svg8"
   inkscape:version="1.1.1 (3bf5ae0d25, 2021-09-20)"
   sodipodi:docname="another_user_added.svg"
   xmlns:inkscape="http://www.inkscape.org/namespaces/inkscape"
   xmlns:sodipodi="http://sodipodi.sourceforge.net/DTD/sodipodi-0.dtd"
   xmlns="http://www.w3.org/2000/svg"
   xmlns:svg="http://www.w3.org/2000/svg"
   xmlns:rdf="http://www.w3.org/1999/02/22-rdf-syntax-ns#"
   xmlns:cc="http://creativecommons.org/ns#"
   xmlns:dc="http://purl.org/dc/elements/1.1/">
  <sodipodi:namedview
     id="base"
     pagecolor="#ffffff"
     bordercolor="#666666"
     borderopacity="1.0"
     inkscape:pageopacity="0.0"
     inkscape:pageshadow="2"
     inkscape:zoom="0.89688413"
     inkscape:cx="566.96287"
     inkscape:cy="381.32016"
     inkscape:document-units="px"
     inkscape:current-layer="layer2"
     showgrid="false"
     units="px"
     showguides="true"
     inkscape:guide-bbox="true"
     inkscape:window-width="1920"
     inkscape:window-height="1018"
     inkscape:window-x="0"
     inkscape:window-y="29"
     inkscape:window-maximized="1"
     inkscape:snap-global="true"
     inkscape:pagecheckerboard="0"
     inkscape:snap-grids="true"
     inkscape:lockguides="true"
     fit-margin-top="0"
     fit-margin-left="0"
     fit-margin-right="0"
     fit-margin-bottom="0">
    <sodipodi:guide
       inkscape:locked="true"
       id="guide815"
       orientation="1,0"
       position="0,503.26725" />
    <sodipodi:guide
       inkscape:locked="true"
       id="guide819"
       orientation="0,1"
       position="-62.259864,0.64854029" />
    <sodipodi:guide
       inkscape:locked="true"
       id="guide823"
       orientation="1,0"
       position="318.43327,420.2541" />
    <sodipodi:guide
       inkscape:locked="true"
       id="guide825"
       orientation="0,1"
       position="387.82708,476.02856" />
    <sodipodi:guide
       position="158.75,300.92269"
       orientation="1,0"
       id="guide895"
       inkscape:locked="true"
       inkscape:label=""
       inkscape:color="rgb(0,0,255)" />
    <sodipodi:guide
       position="32.808332,423.33334"
       orientation="1,0"
       id="guide919"
       inkscape:locked="true" />
    <sodipodi:guide
       position="184.5586,0.097104109"
       orientation="0,-1"
       id="guide72071" />
  </sodipodi:namedview>
  <defs
     id="defs2" />
  <metadata
     id="metadata5">
    <rdf:RDF>
      <cc:Work
         rdf:about="">
        <dc:format>image/svg+xml</dc:format>
        <dc:type
           rdf:resource="http://purl.org/dc/dcmitype/StillImage" />
      </cc:Work>
    </rdf:RDF>
  </metadata>
  <g
     inkscape:groupmode="layer"
     id="layer2"
     inkscape:label="Background"
     transform="translate(0.12145462,-0.09998288)">
    <rect
       style="opacity:0.796;fill:#ffffff;fill-opacity:0.16;stroke:#000000;stroke-width:0.19423;stroke-linecap:square;stroke-miterlimit:4;stroke-dasharray:none;stroke-dashoffset:0;stroke-opacity:0.981273"
       id="rect893"
       width="318.48193"
       height="255.33795"
       x="-0.024339614"
       y="0.19709788" />
  </g>
  <g
     transform="translate(0.12145462,179.15004)"
     id="layer1"
     inkscape:groupmode="layer"
     inkscape:label="Grid"
     style="display:none"
     sodipodi:insensitive="true">
    <path
       id="rect817"
       d="M 7.1339426,-178.38005 H 27.929774 V 296.35143 H 7.1339426 Z"
       style="opacity:0.796;fill:#00006a;fill-opacity:0.16;stroke:#000000;stroke-width:0.265;stroke-linecap:square;stroke-miterlimit:4;stroke-dasharray:none;stroke-dashoffset:0;stroke-opacity:0.981273"
       inkscape:connector-curvature="0" />
    <path
       id="rect821"
       d="m 290.5035,-178.38005 h 20.79583 V 296.35143 H 290.5035 Z"
       style="opacity:0.796;fill:#00006a;fill-opacity:0.16;stroke:#000000;stroke-width:0.265;stroke-linecap:square;stroke-miterlimit:4;stroke-dasharray:none;stroke-dashoffset:0;stroke-opacity:0.981273"
       inkscape:connector-curvature="0" />
    <path
       inkscape:connector-curvature="0"
       d="m 264.74264,-178.38005 c 0,0 20.79583,0 20.79583,0 0,0 0,1.1e-4 0,3.2e-4 0,0.43002 0,474.73116 0,474.73116 0,0 -20.79583,0 -20.79583,0 0,0 0,-1.1e-4 0,-3.2e-4 0,-0.43002 0,-474.73116 0,-474.73116"
       style="opacity:0.796;fill:#00006a;fill-opacity:0.16;stroke:#000000;stroke-width:0.265;stroke-linecap:square;stroke-miterlimit:4;stroke-dasharray:none;stroke-dashoffset:0;stroke-opacity:0.981273"
       id="path838" />
    <path
       inkscape:connector-curvature="0"
       d="m 238.98178,-178.38005 c 0,0 20.79583,0 20.79583,0 0,0 0,1e-4 0,2.9e-4 0,0.39214 0,474.73119 0,474.73119 0,0 -20.79583,0 -20.79583,0 0,0 0,-10e-5 0,-2.9e-4 0,-0.39214 0,-474.73119 0,-474.73119"
       style="opacity:0.796;fill:#00006a;fill-opacity:0.16;stroke:#000000;stroke-width:0.265;stroke-linecap:square;stroke-miterlimit:4;stroke-dasharray:none;stroke-dashoffset:0;stroke-opacity:0.981273"
       id="path840" />
    <path
       inkscape:connector-curvature="0"
       d="m 213.22091,-178.38005 c 0,0 20.79583,0 20.79583,0 0,0 0,9e-5 0,2.6e-4 0,0.35223 0,474.73122 0,474.73122 0,0 -20.79583,0 -20.79583,0 0,0 0,-9e-5 0,-2.6e-4 0,-0.35223 0,-474.73122 0,-474.73122"
       style="opacity:0.796;fill:#00006a;fill-opacity:0.16;stroke:#000000;stroke-width:0.265;stroke-linecap:square;stroke-miterlimit:4;stroke-dasharray:none;stroke-dashoffset:0;stroke-opacity:0.981273"
       id="path842" />
    <path
       inkscape:connector-curvature="0"
       d="m 187.46005,-178.38005 c 0,0 20.79583,0 20.79583,0 0,0 0,8e-5 0,2.3e-4 0,0.31094 0,474.73125 0,474.73125 0,0 -20.79583,0 -20.79583,0 0,0 0,-8e-5 0,-2.3e-4 0,-0.31094 0,-474.73125 0,-474.73125"
       style="opacity:0.796;fill:#00006a;fill-opacity:0.16;stroke:#000000;stroke-width:0.265;stroke-linecap:square;stroke-miterlimit:4;stroke-dasharray:none;stroke-dashoffset:0;stroke-opacity:0.981273"
       id="path844" />
    <path
       inkscape:connector-curvature="0"
       d="m 161.69919,-178.38005 c 0,0 20.79583,0 20.79583,0 0,0 0,7e-5 0,2e-4 0,0.26859 0,474.73128 0,474.73128 0,0 -20.79583,0 -20.79583,0 0,0 0,-7e-5 0,-2e-4 0,-0.26859 0,-474.73128 0,-474.73128"
       style="opacity:0.796;fill:#00006a;fill-opacity:0.16;stroke:#000000;stroke-width:0.265;stroke-linecap:square;stroke-miterlimit:4;stroke-dasharray:none;stroke-dashoffset:0;stroke-opacity:0.981273"
       id="path846" />
    <path
       inkscape:connector-curvature="0"
       d="m 135.93832,-178.38005 c 0,0 20.79583,0 20.79583,0 0,0 0,6e-5 0,1.7e-4 0,0.22538 0,474.73131 0,474.73131 0,0 -20.79583,0 -20.79583,0 0,0 0,-6e-5 0,-1.7e-4 0,-0.22538 0,-474.73131 0,-474.73131"
       style="opacity:0.796;fill:#00006a;fill-opacity:0.16;stroke:#000000;stroke-width:0.265;stroke-linecap:square;stroke-miterlimit:4;stroke-dasharray:none;stroke-dashoffset:0;stroke-opacity:0.981273"
       id="path848" />
    <path
       inkscape:connector-curvature="0"
       d="m 110.17745,-178.38005 c 0,0 20.79583,0 20.79583,0 0,0 0,4e-5 0,1.3e-4 0,0.18145 0,474.73135 0,474.73135 0,0 -20.79583,0 -20.79583,0 0,0 0,-4e-5 0,-1.3e-4 0,-0.18145 0,-474.73135 0,-474.73135"
       style="opacity:0.796;fill:#00006a;fill-opacity:0.16;stroke:#000000;stroke-width:0.265;stroke-linecap:square;stroke-miterlimit:4;stroke-dasharray:none;stroke-dashoffset:0;stroke-opacity:0.981273"
       id="path850" />
    <path
       inkscape:connector-curvature="0"
       d="m 84.416575,-178.38005 c 0,0 20.795835,0 20.795835,0 0,0 0,3e-5 0,1e-4 0,0.13687 0,474.73138 0,474.73138 0,0 -20.795835,0 -20.795835,0 0,0 0,-3e-5 0,-10e-5 0,-0.13687 0,-474.73138 0,-474.73138"
       style="opacity:0.796;fill:#00006a;fill-opacity:0.16;stroke:#000000;stroke-width:0.265;stroke-linecap:square;stroke-miterlimit:4;stroke-dasharray:none;stroke-dashoffset:0;stroke-opacity:0.981273"
       id="path852" />
    <path
       inkscape:connector-curvature="0"
       d="m 58.655696,-178.38005 c 0,0 20.795831,0 20.795831,0 0,0 0,2e-5 0,7e-5 0,0.0917 0,474.73141 0,474.73141 0,0 -20.795831,0 -20.795831,0 0,0 0,-2e-5 0,-7e-5 0,-0.0917 0,-474.73141 0,-474.73141"
       style="opacity:0.796;fill:#00006a;fill-opacity:0.16;stroke:#000000;stroke-width:0.265;stroke-linecap:square;stroke-miterlimit:4;stroke-dasharray:none;stroke-dashoffset:0;stroke-opacity:0.981273"
       id="path854" />
    <path
       inkscape:connector-curvature="0"
       d="m 32.894819,-178.38005 c 0,0 20.795831,0 20.795831,0 0,0 0,1e-5 0,3e-5 0,0.0461 0,474.73145 0,474.73145 0,0 -20.795831,0 -20.795831,0 0,0 0,-10e-6 0,-3e-5 0,-0.0461 0,-474.73145 0,-474.73145"
       style="opacity:0.796;fill:#00006a;fill-opacity:0.16;stroke:#000000;stroke-width:0.265;stroke-linecap:square;stroke-miterlimit:4;stroke-dasharray:none;stroke-dashoffset:0;stroke-opacity:0.981273"
       id="path856" />
  </g>
  <g
     inkscape:groupmode="layer"
     id="layer3"
     inkscape:label="Boxes"
     transform="translate(0.12145462,-0.09998288)">
    <rect
       style="fill:#ececec;stroke-width:0.264583"
       id="rect181"
       width="201.27176"
       height="115.13913"
       x="58.655697"
       y="20.570124"
       ry="10.434638" />
    <g
       id="g5991"
       transform="translate(3.7361088)"
       style="fill:#782167">
      <rect
         style="fill:#782167;stroke-width:0.158766"
         id="rect1081"
         width="35.622791"
         height="15.648368"
         x="137.38902"
         y="109.098"
         ry="2.3656859" />
      <text
         xml:space="preserve"
         style="font-size:5.64444px;line-height:1.25;font-family:'Noto Sans';-inkscape-font-specification:'Noto Sans, Normal';fill:#f6d5ff;stroke-width:0.264583"
         x="143.06206"
         y="119.03885"
         id="text3065"><tspan
           sodipodi:role="line"
           id="tspan3063"
           style="fill:#f6d5ff;stroke-width:0.264583"
           x="143.06206"
           y="119.03885">Add User</tspan></text>
    </g>
    <rect
       style="fill:#ececec;stroke-width:0.198411"
       id="rect31121"
       width="201.27176"
       height="64.748039"
       x="58.655697"
       y="167.29187"
       ry="11.964209" />
    <rect
       style="fill:#ffffff;stroke-width:0.213724"
       id="rect31220"
       width="167.56134"
       height="17.900045"
       x="75.51091"
       y="179.19695"
       ry="4.2718987" />
    <rect
       style="fill:#ffffff;stroke-width:0.213724"
       id="rect34733"
       width="167.56134"
       height="17.900045"
       x="75.51091"
       y="203.00943"
       ry="4.2718987" />
  </g>
  <g
     inkscape:groupmode="layer"
     id="layer4"
     inkscape:label="Text"
     transform="translate(0.12145462,-0.09998288)">
    <flowRoot
       xml:space="preserve"
       id="flowRoot932"
       style="font-style:normal;font-variant:normal;font-weight:normal;font-stretch:normal;font-size:18.6667px;line-height:1.25;font-family:'Noto Sans';-inkscape-font-specification:'Noto Sans, Normal';font-variant-ligatures:normal;font-variant-position:sub;font-variant-caps:normal;font-variant-numeric:normal;font-feature-settings:normal;text-align:start;writing-mode:lr-tb;text-anchor:start;opacity:1;fill:#f9f9f9;fill-opacity:1;stroke:#000000;stroke-width:1.00157;stroke-linecap:square;stroke-miterlimit:4;stroke-dasharray:none;stroke-dashoffset:0;stroke-opacity:0.981273"><flowRegion
         id="flowRegion934"><rect
           id="rect936"
           width="310"
           height="92"
           x="-566"
           y="382" /></flowRegion><flowPara
         id="flowPara938" /></flowRoot>
    <g
       id="g1191">
      <rect
         style="fill:#ffffff;stroke-width:0.188192"
         id="rect461"
         width="142.31694"
         height="16.984219"
         x="87.730698"
         y="44.427673"
         ry="3.9424045" />
      <text
         xml:space="preserve"
         style="font-size:5.64444px;line-height:1.25;font-family:'Noto Sans';-inkscape-font-specification:'Noto Sans, Normal';fill:#b3b3b3;stroke-width:0.264583"
         x="92.67067"
         y="54.509609"
         id="text935"><tspan
           sodipodi:role="line"
           id="tspan933"
           style="fill:#b3b3b3;stroke-width:0.264583"
           x="92.67067"
           y="54.509609">please enter the name</tspan></text>
    </g>
    <g
       id="g1167"
       transform="translate(0,-3.7041668)">
      <rect
         style="fill:#ffffff;stroke-width:0.188192"
         id="rect955"
         width="142.31694"
         height="16.984219"
         x="87.730698"
         y="81.048294"
         ry="3.9424045" />
      <text
         xml:space="preserve"
         style="font-size:5.64444px;line-height:1.25;font-family:'Noto Sans';-inkscape-font-specification:'Noto Sans, Normal';fill:#b3b3b3;stroke-width:0.264583"
         x="96.555725"
         y="91.678833"
         id="text931"><tspan
           sodipodi:role="line"
           id="tspan929"
           style="fill:#b3b3b3;stroke-width:0.264583"
           x="96.555725"
           y="91.678833">please enter the age</tspan></text>
    </g>
    <text
       xml:space="preserve"
       style="font-size:5.64444px;line-height:1.25;font-family:'Noto Sans';-inkscape-font-specification:'Noto Sans, Normal';stroke-width:0.264583"
       x="89.210403"
       y="36.59943"
       id="text17377"><tspan
         sodipodi:role="line"
         id="tspan17375"
         style="stroke-width:0.264583"
         x="89.210403"
         y="36.59943">Name</tspan><tspan
         sodipodi:role="line"
         style="stroke-width:0.264583"
         x="89.210403"
         y="43.65498"
         id="tspan17401" /></text>
    <text
       xml:space="preserve"
       style="font-style:normal;font-variant:normal;font-weight:bold;font-stretch:normal;font-size:5.64444px;line-height:1.25;font-family:'Noto Sans';-inkscape-font-specification:'Noto Sans, Bold';font-variant-ligatures:normal;font-variant-caps:normal;font-variant-numeric:normal;font-variant-east-asian:normal;fill:#333333;stroke-width:0.264583"
       x="89.210403"
       y="36.59943"
       id="text19731"><tspan
         sodipodi:role="line"
         id="tspan19727"
         style="font-style:normal;font-variant:normal;font-weight:bold;font-stretch:normal;font-size:5.64444px;font-family:'Noto Sans';-inkscape-font-specification:'Noto Sans, Bold';font-variant-ligatures:normal;font-variant-caps:normal;font-variant-numeric:normal;font-variant-east-asian:normal;fill:#333333;stroke-width:0.264583"
         x="89.210403"
         y="36.59943">Name</tspan><tspan
         sodipodi:role="line"
         style="font-style:normal;font-variant:normal;font-weight:bold;font-stretch:normal;font-size:5.64444px;font-family:'Noto Sans';-inkscape-font-specification:'Noto Sans, Bold';font-variant-ligatures:normal;font-variant-caps:normal;font-variant-numeric:normal;font-variant-east-asian:normal;fill:#333333;stroke-width:0.264583"
         x="89.210403"
         y="43.65498"
         id="tspan19729" /></text>
    <text
       xml:space="preserve"
       style="font-style:normal;font-variant:normal;font-weight:bold;font-stretch:normal;font-size:5.64444px;line-height:1.25;font-family:'Noto Sans';-inkscape-font-specification:'Noto Sans, Bold';font-variant-ligatures:normal;font-variant-caps:normal;font-variant-numeric:normal;font-variant-east-asian:normal;fill:#333333;stroke-width:0.264583"
       x="89.210403"
       y="72.582756"
       id="text19755"><tspan
         sodipodi:role="line"
         id="tspan19751"
         style="font-style:normal;font-variant:normal;font-weight:bold;font-stretch:normal;font-size:5.64444px;font-family:'Noto Sans';-inkscape-font-specification:'Noto Sans, Bold';font-variant-ligatures:normal;font-variant-caps:normal;font-variant-numeric:normal;font-variant-east-asian:normal;fill:#333333;stroke-width:0.264583"
         x="89.210403"
         y="72.582756">Age</tspan><tspan
         sodipodi:role="line"
         style="font-style:normal;font-variant:normal;font-weight:bold;font-stretch:normal;font-size:5.64444px;font-family:'Noto Sans';-inkscape-font-specification:'Noto Sans, Bold';font-variant-ligatures:normal;font-variant-caps:normal;font-variant-numeric:normal;font-variant-east-asian:normal;fill:#333333;stroke-width:0.264583"
         x="89.210403"
         y="79.638306"
         id="tspan19753" /></text>
    <text
       xml:space="preserve"
       style="font-size:5.64444px;line-height:1.25;font-family:'Noto Sans';-inkscape-font-specification:'Noto Sans, Normal';fill:#333333;stroke-width:0.264583"
       x="83.839798"
       y="189.61452"
       id="text31565"><tspan
         sodipodi:role="line"
         id="tspan31563"
         style="fill:#333333;stroke-width:0.264583"
         x="83.839798"
         y="189.61452">Rich Harris, 37 years old</tspan></text>
    <text
       xml:space="preserve"
       style="font-size:5.64444px;line-height:1.25;font-family:'Noto Sans';-inkscape-font-specification:'Noto Sans, Normal';fill:#333333;stroke-width:0.264583"
       x="83.839798"
       y="213.427"
       id="text34737"><tspan
         sodipodi:role="line"
         id="tspan34735"
         style="fill:#333333;stroke-width:0.264583"
         x="83.839798"
         y="213.427">Laura Bitchface, 32 years old</tspan></text>
  </g>
</svg>
